<svg width="32" height="33" viewBox="0 0 32 33" fill="none" xmlns="http://www.w3.org/2000/svg">
<rect y="0.5" width="32" height="32" rx="16" fill="#E63946"/>
<path d="M25 10.4805C21.67 10.1505 18.32 9.98047 14.98 9.98047C13 9.98047 11.02 10.0805 9.04 10.2805L7 10.4805" stroke="white" stroke-width="1.5" stroke-linecap="round" stroke-linejoin="round"/>
<path d="M12.5004 9.47073L12.7204 8.16073C12.8804 7.21073 13.0004 6.50073 14.6904 6.50073H17.3104C19.0004 6.50073 19.1304 7.25073 19.2804 8.17073L19.5004 9.47073" stroke="white" stroke-width="1.5" stroke-linecap="round" stroke-linejoin="round"/>
<path d="M22.8499 13.6399L22.1999 23.7099C22.0899 25.2799 21.9999 26.4999 19.2099 26.4999H12.7899C9.9999 26.4999 9.9099 25.2799 9.7999 23.7099L9.1499 13.6399" stroke="white" stroke-width="1.5" stroke-linecap="round" stroke-linejoin="round"/>
<path d="M14.33 21H17.66" stroke="white" stroke-width="1.5" stroke-linecap="round" stroke-linejoin="round"/>
<path d="M13.4996 17.0007H18.4996" stroke="white" stroke-width="1.5" stroke-linecap="round" stroke-linejoin="round"/>
</svg>
