<svg width="32" height="32" viewBox="0 0 32 32" fill="none" xmlns="http://www.w3.org/2000/svg">
<rect width="32" height="32" rx="16" fill="#E0C789"/>
<path d="M15.5 6.5H13.5C8.5 6.5 6.5 8.5 6.5 13.5V19.5C6.5 24.5 8.5 26.5 13.5 26.5H19.5C24.5 26.5 26.5 24.5 26.5 19.5V17.5" stroke="white" stroke-width="1.5" stroke-linecap="round" stroke-linejoin="round"/>
<path d="M20.54 7.5205L12.66 15.4005C12.36 15.7005 12.06 16.2905 12 16.7205L11.57 19.7305C11.41 20.8205 12.18 21.5805 13.27 21.4305L16.28 21.0005C16.7 20.9405 17.29 20.6405 17.6 20.3405L25.48 12.4605C26.84 11.1005 27.48 9.5205 25.48 7.5205C23.48 5.5205 21.9 6.1605 20.54 7.5205Z" stroke="white" stroke-width="1.5" stroke-miterlimit="10" stroke-linecap="round" stroke-linejoin="round"/>
<path d="M19.41 8.6499C20.08 11.0399 21.95 12.9099 24.35 13.5899" stroke="white" stroke-width="1.5" stroke-miterlimit="10" stroke-linecap="round" stroke-linejoin="round"/>
</svg>
