<svg width="166" height="47" viewBox="0 0 166 47" fill="none" xmlns="http://www.w3.org/2000/svg">
<path d="M20.642 11.6875C20.4829 10.1989 19.8125 9.03977 18.6306 8.21023C17.4602 7.38068 15.9375 6.96591 14.0625 6.96591C12.7443 6.96591 11.6136 7.16477 10.6704 7.5625C9.72723 7.96023 9.00564 8.5 8.50564 9.18182C8.00564 9.86364 7.74996 10.642 7.7386 11.517C7.7386 12.2443 7.90337 12.875 8.23292 13.4091C8.57383 13.9432 9.03405 14.3977 9.6136 14.7727C10.1931 15.1364 10.8352 15.4432 11.5397 15.6932C12.2443 15.9432 12.9545 16.1534 13.6704 16.3239L16.9431 17.142C18.2613 17.4489 19.5284 17.8636 20.7443 18.3864C21.9716 18.9091 23.0681 19.5682 24.0341 20.3636C25.0113 21.1591 25.7841 22.1193 26.3522 23.2443C26.9204 24.3693 27.2045 25.6875 27.2045 27.1989C27.2045 29.2443 26.6818 31.0455 25.6363 32.6023C24.5909 34.1477 23.0795 35.358 21.1022 36.233C19.1363 37.0966 16.7556 37.5284 13.9602 37.5284C11.2443 37.5284 8.88633 37.108 6.88633 36.267C4.89769 35.4261 3.34087 34.1989 2.21587 32.5852C1.10223 30.9716 0.499961 29.0057 0.409052 26.6875H6.63064C6.72155 27.9034 7.09655 28.9148 7.75564 29.7216C8.41473 30.5284 9.27269 31.1307 10.3295 31.5284C11.3977 31.9261 12.5909 32.125 13.9091 32.125C15.2841 32.125 16.4886 31.9205 17.5227 31.5114C18.5681 31.0909 19.3863 30.5114 19.9772 29.7727C20.5681 29.0227 20.8693 28.1477 20.8806 27.1477C20.8693 26.2386 20.6022 25.4886 20.0795 24.8977C19.5568 24.2955 18.8238 23.7955 17.8806 23.3977C16.9488 22.9886 15.8579 22.625 14.6079 22.3068L10.6363 21.2841C7.76133 20.5455 5.4886 19.4261 3.81814 17.9261C2.15905 16.4148 1.32951 14.4091 1.32951 11.9091C1.32951 9.85227 1.88633 8.05114 2.99996 6.50568C4.12496 4.96023 5.65337 3.76136 7.58519 2.90909C9.51701 2.04545 11.7045 1.61364 14.1477 1.61364C16.625 1.61364 18.7954 2.04545 20.6591 2.90909C22.5341 3.76136 24.0056 4.94886 25.0738 6.47159C26.142 7.98295 26.6931 9.72159 26.7272 11.6875H20.642ZM38.1946 28.7841L38.1775 21.3352H39.1662L48.5752 10.8182H55.7855L44.2116 23.7045H42.9332L38.1946 28.7841ZM32.5696 37V2.09091H38.74V37H32.5696ZM49.0014 37L40.4787 25.0852L44.6377 20.7386L56.3821 37H49.0014ZM64.0142 46.8182C63.1733 46.8182 62.3948 46.75 61.6789 46.6136C60.9744 46.4886 60.4119 46.3409 59.9914 46.1705L61.4233 41.3636C62.321 41.625 63.1221 41.75 63.8267 41.7386C64.5312 41.7273 65.1505 41.5057 65.6846 41.0739C66.2301 40.6534 66.6903 39.9489 67.0653 38.9602L67.5937 37.5455L58.0994 10.8182H64.6448L70.6789 30.5909H70.9517L77.0028 10.8182H83.5653L73.0823 40.1705C72.5937 41.5568 71.946 42.7443 71.1392 43.733C70.3323 44.733 69.3437 45.4943 68.1733 46.017C67.0142 46.5511 65.6278 46.8182 64.0142 46.8182ZM94.0056 2.09091V37H87.8352V2.09091H94.0056ZM100.351 37V10.8182H106.521V37H100.351ZM103.453 7.10227C102.476 7.10227 101.635 6.77841 100.93 6.13068C100.226 5.47159 99.8735 4.68182 99.8735 3.76136C99.8735 2.82954 100.226 2.03977 100.93 1.39204C101.635 0.732953 102.476 0.403408 103.453 0.403408C104.442 0.403408 105.283 0.732953 105.976 1.39204C106.68 2.03977 107.033 2.82954 107.033 3.76136C107.033 4.68182 106.68 5.47159 105.976 6.13068C105.283 6.77841 104.442 7.10227 103.453 7.10227ZM119.037 21.6591V37H112.866V10.8182H118.764V15.267H119.071C119.673 13.8011 120.633 12.6364 121.952 11.7727C123.281 10.9091 124.923 10.4773 126.878 10.4773C128.685 10.4773 130.258 10.8636 131.599 11.6364C132.952 12.4091 133.997 13.5284 134.736 14.9943C135.486 16.4602 135.855 18.2386 135.844 20.3295V37H129.673V21.2841C129.673 19.5341 129.219 18.1648 128.31 17.1761C127.412 16.1875 126.168 15.6932 124.577 15.6932C123.497 15.6932 122.537 15.9318 121.696 16.4091C120.866 16.875 120.213 17.5511 119.736 18.4375C119.27 19.3239 119.037 20.3977 119.037 21.6591ZM153.707 37.5114C151.082 37.5114 148.815 36.9659 146.906 35.875C145.008 34.7727 143.548 33.2159 142.526 31.2045C141.503 29.1818 140.991 26.8011 140.991 24.0625C140.991 21.3693 141.503 19.0057 142.526 16.9716C143.56 14.9261 145.003 13.3352 146.855 12.1989C148.707 11.0511 150.883 10.4773 153.383 10.4773C154.997 10.4773 156.52 10.7386 157.952 11.2614C159.395 11.7727 160.668 12.5682 161.77 13.6477C162.883 14.7273 163.758 16.1023 164.395 17.7727C165.031 19.4318 165.349 21.4091 165.349 23.7045V25.5966H143.889V21.4375H159.435C159.423 20.2557 159.168 19.2045 158.668 18.2841C158.168 17.3523 157.469 16.6193 156.571 16.0852C155.685 15.5511 154.651 15.2841 153.469 15.2841C152.207 15.2841 151.099 15.5909 150.145 16.2045C149.19 16.8068 148.446 17.6023 147.912 18.5909C147.389 19.5682 147.122 20.642 147.111 21.8125V25.4432C147.111 26.9659 147.389 28.2727 147.946 29.3636C148.503 30.4432 149.281 31.2727 150.281 31.8523C151.281 32.4205 152.452 32.7045 153.793 32.7045C154.69 32.7045 155.503 32.5795 156.23 32.3295C156.957 32.0682 157.588 31.6875 158.122 31.1875C158.656 30.6875 159.06 30.0682 159.332 29.3295L165.094 29.9773C164.73 31.5 164.037 32.8295 163.014 33.9659C162.003 35.0909 160.707 35.9659 159.128 36.5909C157.548 37.2045 155.741 37.5114 153.707 37.5114Z" fill="url(#paint0_linear_8_103)"/>
<defs>
<linearGradient id="paint0_linear_8_103" x1="173.407" y1="37" x2="-7.78042" y2="-2.69185" gradientUnits="userSpaceOnUse">
<stop offset="0.215" stop-color="#FB8500"/>
<stop offset="0.48" stop-color="#219EBC"/>
<stop offset="0.905" stop-color="#8ECAE6"/>
</linearGradient>
</defs>
</svg>
